<svg xmlns="http://www.w3.org/2000/svg" xmlns:xlink="http://www.w3.org/1999/xlink" width="500" zoomAndPan="magnify" viewBox="0 0 375 374.999991" height="500" preserveAspectRatio="xMidYMid meet" version="1.0"><defs><clipPath id="4b7d612e94"><path d="M 133.445312 57.988281 L 241.46875 57.988281 L 241.46875 95.40625 L 133.445312 95.40625 Z M 133.445312 57.988281 " clip-rule="nonzero"/></clipPath><clipPath id="8e72dcd508"><path d="M 187.507812 57.988281 C 187.019531 57.992188 186.515625 58.085938 186.023438 58.277344 C 184.992188 58.679688 184.023438 59.25 183.058594 59.800781 C 168.671875 68.089844 154.253906 76.328125 139.941406 84.746094 C 137.960938 85.914062 135.640625 86.691406 134.246094 88.960938 C 133.0625 90.886719 133.644531 92.234375 134.726562 93.644531 C 135.582031 94.757812 136.652344 95.324219 137.75 95.324219 C 138.324219 95.324219 138.90625 95.167969 139.464844 94.847656 L 160.816406 82.742188 C 161.542969 82.320312 162.160156 82.113281 162.773438 82.113281 C 163.410156 82.113281 164.039062 82.339844 164.78125 82.78125 L 184.632812 94.300781 C 185.554688 94.832031 186.523438 95.40625 187.535156 95.40625 C 187.996094 95.40625 188.460938 95.289062 188.9375 94.992188 C 194.625 91.449219 200.800781 88.691406 206.304688 84.945312 C 208.464844 83.476562 210.367188 82.761719 212.242188 82.761719 C 214.203125 82.761719 216.140625 83.542969 218.320312 85.035156 C 223.578125 88.644531 229.316406 91.570312 234.898438 94.691406 C 235.636719 95.101562 236.386719 95.292969 237.109375 95.292969 C 238.609375 95.292969 239.980469 94.460938 240.828125 93.007812 C 241.964844 91.058594 241.417969 88.832031 239.375 87.335938 L 237.074219 85.898438 C 229.84375 81.722656 222.578125 77.601562 215.398438 73.347656 C 214.285156 72.691406 213.25 72.347656 212.210938 72.347656 C 211.230469 72.347656 210.242188 72.648438 209.1875 73.277344 L 189.355469 84.804688 C 188.671875 85.207031 188.074219 85.425781 187.472656 85.425781 C 186.917969 85.425781 186.367188 85.246094 185.738281 84.875 L 173.441406 77.777344 C 172.933594 77.480469 172.109375 77.363281 172.105469 76.625 C 172.097656 75.875 172.9375 75.789062 173.453125 75.492188 L 189.167969 66.402344 C 190.675781 65.527344 191.84375 64.390625 191.917969 62.488281 C 191.980469 59.976562 189.894531 58.003906 187.566406 57.988281 Z M 187.507812 57.988281 " clip-rule="nonzero"/></clipPath><clipPath id="8524fc6656"><path d="M 133.5 143.351562 L 191.988281 143.351562 L 191.988281 238.183594 L 133.5 238.183594 Z M 133.5 143.351562 " clip-rule="nonzero"/></clipPath><clipPath id="7859a933f5"><path d="M 137.941406 143.601562 C 136.523438 143.601562 135.207031 144.417969 134.269531 145.867188 C 133.0625 147.734375 133.460938 149.855469 135.425781 151.390625 C 136.410156 152.160156 137.507812 152.785156 138.589844 153.414062 L 156.339844 163.585938 C 157.863281 164.4375 158.453125 165.425781 158.425781 167.214844 L 158.292969 189.570312 C 158.25 192.167969 159.203125 193.902344 161.453125 195.175781 L 181.1875 206.507812 C 182.652344 207.332031 183.214844 208.316406 183.191406 209.988281 L 183.101562 231.09375 C 183.101562 232.273438 183.171875 233.464844 183.34375 234.632812 C 183.605469 236.398438 184.792969 237.433594 186.410156 237.984375 C 186.8125 238.121094 187.195312 238.179688 187.558594 238.179688 C 188.621094 238.179688 189.554688 237.65625 190.429688 236.910156 C 191.957031 235.601562 191.878906 233.8125 191.882812 232.085938 L 191.894531 205.339844 L 191.949219 205.339844 L 191.941406 179.21875 C 191.9375 178.039062 191.898438 176.839844 191.691406 175.6875 C 191.328125 173.675781 189.527344 172.242188 187.550781 172.214844 C 187.535156 172.214844 187.515625 172.214844 187.5 172.214844 C 185.542969 172.214844 183.761719 173.601562 183.328125 175.59375 C 183.132812 176.46875 183.109375 177.390625 183.105469 178.289062 L 183.089844 195.425781 C 183.105469 196.574219 182.960938 197.101562 182.464844 197.101562 C 182.175781 197.101562 181.765625 196.925781 181.199219 196.585938 L 168.914062 189.453125 C 167.511719 188.664062 167.074219 187.683594 167.105469 186.082031 L 167.230469 163.726562 C 167.242188 161.417969 166.59375 159.503906 164.453125 158.273438 L 140.03125 144.191406 C 139.332031 143.792969 138.625 143.605469 137.941406 143.605469 Z M 137.941406 143.601562 " clip-rule="nonzero"/></clipPath><clipPath id="4dbfced0a4"><path d="M 108.851562 100.738281 L 217 100.738281 L 217 138.335938 L 108.851562 138.335938 Z M 108.851562 100.738281 " clip-rule="nonzero"/></clipPath><clipPath id="59e7947915"><path d="M 212.332031 100.742188 C 211.285156 100.742188 210.300781 101.222656 209.339844 101.773438 L 189.121094 113.53125 C 188.519531 113.886719 188 114.066406 187.480469 114.066406 C 186.972656 114.066406 186.46875 113.898438 185.894531 113.554688 L 165.851562 101.90625 C 164.757812 101.253906 163.738281 100.917969 162.714844 100.917969 C 161.769531 100.917969 160.824219 101.207031 159.816406 101.800781 L 139.917969 113.457031 C 139.242188 113.855469 138.660156 114.0625 138.074219 114.0625 C 137.515625 114.0625 136.953125 113.875 136.308594 113.496094 L 116.4375 101.972656 C 115.40625 101.375 114.375 100.800781 112.992188 100.761719 C 111.210938 100.945312 109.929688 102.027344 109.191406 103.746094 C 108.476562 105.417969 108.953125 106.941406 110.226562 108.117188 C 111.085938 108.914062 112.117188 109.539062 113.136719 110.132812 L 158.144531 136.140625 C 159.167969 136.730469 160.191406 137.355469 161.28125 137.789062 C 161.8125 138.003906 162.347656 138.105469 162.871094 138.105469 C 164.335938 138.105469 165.699219 137.316406 166.527344 135.960938 C 167.652344 134.109375 167.300781 131.980469 165.546875 130.53125 C 164.800781 129.917969 163.957031 129.402344 163.113281 128.914062 L 148.628906 120.59375 C 148.105469 120.292969 147.363281 120.101562 147.414062 119.339844 C 147.449219 118.867188 147.925781 118.644531 148.382812 118.394531 C 152.582031 116.070312 156.796875 113.765625 160.882812 111.257812 C 161.574219 110.835938 162.164062 110.632812 162.746094 110.632812 C 163.355469 110.632812 163.957031 110.855469 164.652344 111.265625 L 184.492188 122.828125 C 185.542969 123.453125 186.546875 123.765625 187.542969 123.765625 C 188.535156 123.765625 189.519531 123.453125 190.546875 122.820312 L 198.125 118.402344 C 203.539062 115.253906 208.960938 112.117188 214.359375 108.941406 C 215.828125 108.078125 216.796875 106.78125 216.660156 105.011719 C 216.515625 103.21875 215.5 101.914062 213.878906 101.117188 C 213.34375 100.855469 212.828125 100.746094 212.324219 100.746094 Z M 212.332031 100.742188 " clip-rule="nonzero"/></clipPath><clipPath id="d392e3a44b"><path d="M 207.445312 100.738281 L 266.351562 100.738281 L 266.351562 195.570312 L 207.445312 195.570312 Z M 207.445312 100.738281 " clip-rule="nonzero"/></clipPath><clipPath id="ec0ca0396e"><path d="M 261.84375 100.769531 C 260.964844 100.769531 260.089844 101.097656 259.21875 101.585938 L 248.714844 107.613281 C 239.863281 112.71875 231.003906 117.8125 222.164062 122.933594 C 218.101562 125.285156 214.007812 127.59375 210.046875 130.109375 C 207.632812 131.640625 207.160156 133.855469 208.414062 135.792969 C 209.398438 137.308594 210.46875 138.054688 211.769531 138.054688 C 212.59375 138.054688 213.511719 137.757812 214.5625 137.171875 L 230.90625 127.992188 C 231.402344 127.707031 231.773438 127.558594 232.039062 127.558594 C 232.515625 127.558594 232.664062 128.039062 232.648438 129.050781 C 232.574219 133.574219 232.441406 138.113281 232.675781 142.625 C 232.796875 144.992188 231.773438 146.136719 229.9375 147.167969 L 211.171875 157.855469 C 208.800781 159.191406 207.722656 161.046875 207.804688 163.808594 C 207.9375 168.054688 207.839844 172.308594 207.839844 176.558594 L 207.90625 176.558594 L 207.96875 190.972656 C 208.019531 193.375 209.804688 195.132812 211.972656 195.308594 C 212.066406 195.316406 212.160156 195.320312 212.25 195.320312 C 214.066406 195.320312 215.90625 193.890625 216.421875 191.90625 C 216.640625 191.042969 216.671875 190.113281 216.671875 189.21875 L 216.65625 166.648438 C 216.652344 165.601562 216.636719 164.648438 217.761719 164.003906 C 224.441406 160.179688 231.027344 156.175781 237.800781 152.53125 C 240.367188 151.148438 241.445312 149.445312 241.417969 146.625 L 241.355469 124.054688 C 241.335938 122.53125 241.816406 121.65625 243.167969 120.929688 C 246.597656 119.078125 249.9375 117.066406 253.3125 115.113281 C 256.742188 113.125 260.21875 111.199219 263.589844 109.109375 C 265.28125 108.058594 266.128906 106.648438 266.140625 105.230469 L 266.140625 105.171875 C 266.128906 103.898438 265.449219 102.617188 264.09375 101.585938 C 263.339844 101.011719 262.589844 100.773438 261.839844 100.773438 Z M 261.84375 100.769531 " clip-rule="nonzero"/></clipPath><clipPath id="56355e8638"><path d="M 108.851562 129.5625 L 167.339844 129.5625 L 167.339844 223.980469 L 108.851562 223.980469 Z M 108.851562 129.5625 " clip-rule="nonzero"/></clipPath><clipPath id="eadd647b52"><path d="M 113.691406 129.695312 C 113.640625 129.695312 113.589844 129.695312 113.539062 129.699219 C 110.714844 129.84375 108.855469 131.113281 108.90625 134.714844 C 109.03125 143.273438 109.046875 151.84375 108.871094 160.40625 C 108.804688 163.621094 110.003906 165.5625 112.761719 167.085938 C 119.214844 170.648438 125.539062 174.457031 131.960938 178.082031 C 133.214844 178.792969 133.722656 179.613281 133.691406 181.058594 L 133.605469 195.050781 C 133.601562 195.707031 133.984375 196.566406 133.289062 196.972656 C 133.140625 197.0625 132.996094 197.101562 132.855469 197.101562 C 132.34375 197.101562 131.878906 196.613281 131.421875 196.351562 L 115.523438 187.152344 C 114.769531 186.714844 114.035156 186.503906 113.324219 186.503906 C 112.351562 186.503906 111.421875 186.902344 110.542969 187.644531 C 109.53125 188.496094 108.859375 189.546875 108.851562 190.84375 L 108.855469 190.84375 L 108.855469 190.882812 C 108.855469 191.113281 108.875 191.347656 108.921875 191.589844 C 109.238281 193.335938 110.554688 194.285156 111.941406 195.09375 L 128.375 204.613281 C 139.039062 210.773438 149.691406 216.953125 160.375 223.074219 C 161.292969 223.601562 162.167969 223.851562 162.972656 223.851562 C 164.382812 223.851562 165.59375 223.078125 166.503906 221.617188 C 167.769531 219.59375 167.257812 217.5 165.054688 215.804688 L 163.460938 214.8125 C 156.933594 211.039062 150.417969 207.246094 143.859375 203.527344 C 142.730469 202.886719 142.335938 202.101562 142.359375 200.84375 L 142.378906 188.9375 L 142.417969 188.9375 L 142.445312 177.867188 C 142.519531 175.28125 141.527344 173.550781 139.261719 172.273438 L 119.894531 161.164062 C 118.253906 160.242188 117.558594 159.222656 117.59375 157.246094 C 117.742188 149.796875 117.675781 142.34375 117.664062 134.894531 C 117.660156 132.085938 115.855469 129.695312 113.695312 129.695312 Z M 113.691406 129.695312 " clip-rule="nonzero"/></clipPath><clipPath id="ae39616697"><path d="M 207.445312 129.144531 L 266.351562 129.144531 L 266.351562 223.980469 L 207.445312 223.980469 Z M 207.445312 129.144531 " clip-rule="nonzero"/></clipPath><clipPath id="dc02bcf380"><path d="M 261.675781 129.324219 C 260.054688 129.324219 258.84375 130.261719 257.933594 131.660156 C 257.300781 132.628906 257.328125 133.777344 257.328125 134.902344 L 257.371094 157.679688 C 257.382812 159.1875 256.933594 160.0625 255.585938 160.824219 L 235.585938 172.351562 C 233.386719 173.597656 232.542969 175.308594 232.574219 177.816406 L 232.625 200.59375 C 232.628906 201.675781 232.621094 202.65625 231.503906 203.292969 L 217.585938 211.316406 C 215.027344 212.804688 212.402344 214.195312 209.964844 215.863281 C 207.441406 217.59375 207.140625 220 208.871094 222.140625 C 209.789062 223.273438 210.839844 223.855469 212.050781 223.855469 C 212.890625 223.855469 213.816406 223.570312 214.824219 222.992188 L 237.996094 209.675781 C 240.488281 208.273438 241.460938 206.363281 241.421875 203.554688 L 241.363281 180.777344 C 241.359375 179.632812 241.519531 178.851562 242.726562 178.144531 L 255.839844 170.707031 C 256.265625 170.472656 256.585938 170.359375 256.8125 170.359375 C 257.253906 170.359375 257.371094 170.792969 257.363281 171.652344 L 257.34375 182.933594 C 257.347656 185.578125 257.300781 188.230469 257.386719 190.875 C 257.457031 192.859375 258.46875 194.273438 260.34375 195.039062 C 260.839844 195.242188 261.308594 195.332031 261.75 195.332031 C 262.859375 195.332031 263.832031 194.773438 264.734375 193.972656 C 265.9375 192.910156 266.125 191.476562 266.121094 189.964844 L 266.113281 162.382812 L 266.128906 162.382812 L 266.125 140.230469 C 266.121094 138.003906 266.167969 135.769531 266.03125 133.546875 C 265.898438 131.445312 264.386719 129.746094 262.492188 129.402344 C 262.207031 129.351562 261.933594 129.324219 261.671875 129.324219 Z M 261.675781 129.324219 " clip-rule="nonzero"/></clipPath><clipPath id="86c65d07d5"><path d="M 179.496094 141.128906 L 195.503906 141.128906 L 195.503906 157.136719 L 179.496094 157.136719 Z M 179.496094 141.128906 " clip-rule="nonzero"/></clipPath><clipPath id="b1efdf4d1d"><path d="M 187.5 141.128906 C 183.078125 141.128906 179.496094 144.710938 179.496094 149.132812 C 179.496094 153.550781 183.078125 157.136719 187.5 157.136719 C 191.921875 157.136719 195.503906 153.550781 195.503906 149.132812 C 195.503906 144.710938 191.921875 141.128906 187.5 141.128906 Z M 187.5 141.128906 " clip-rule="nonzero"/></clipPath></defs><g clip-path="url(#4b7d612e94)"><g clip-path="url(#8e72dcd508)"><path fill="#171616" d="M 133.59375 57.988281 L 241.46875 57.988281 L 241.46875 95.40625 L 133.59375 95.40625 Z M 133.59375 57.988281 " fill-opacity="1" fill-rule="nonzero"/></g></g><g clip-path="url(#8524fc6656)"><g clip-path="url(#7859a933f5)"><path fill="#a6a6a6" d="M 106.761719 98.648438 L 268.441406 98.648438 L 268.441406 240.273438 L 106.761719 240.273438 Z M 106.761719 98.648438 " fill-opacity="1" fill-rule="nonzero"/></g></g><g clip-path="url(#4dbfced0a4)"><g clip-path="url(#59e7947915)"><path fill="#737373" d="M 106.761719 98.648438 L 268.441406 98.648438 L 268.441406 240.273438 L 106.761719 240.273438 Z M 106.761719 98.648438 " fill-opacity="1" fill-rule="nonzero"/></g></g><g clip-path="url(#d392e3a44b)"><g clip-path="url(#ec0ca0396e)"><path fill="#545454" d="M 106.761719 98.648438 L 268.441406 98.648438 L 268.441406 240.273438 L 106.761719 240.273438 Z M 106.761719 98.648438 " fill-opacity="1" fill-rule="nonzero"/></g></g><g clip-path="url(#56355e8638)"><g clip-path="url(#eadd647b52)"><path fill="#545454" d="M 106.761719 98.648438 L 268.441406 98.648438 L 268.441406 240.273438 L 106.761719 240.273438 Z M 106.761719 98.648438 " fill-opacity="1" fill-rule="nonzero"/></g></g><g clip-path="url(#ae39616697)"><g clip-path="url(#dc02bcf380)"><path fill="#171616" d="M 106.761719 98.648438 L 268.441406 98.648438 L 268.441406 240.273438 L 106.761719 240.273438 Z M 106.761719 98.648438 " fill-opacity="1" fill-rule="nonzero"/></g></g><g clip-path="url(#86c65d07d5)"><g clip-path="url(#b1efdf4d1d)"><path fill="#ffffff" d="M 179.496094 141.128906 L 195.503906 141.128906 L 195.503906 157.136719 L 179.496094 157.136719 Z M 179.496094 141.128906 " fill-opacity="1" fill-rule="nonzero"/></g></g></svg>