<svg xmlns="http://www.w3.org/2000/svg" xmlns:xlink="http://www.w3.org/1999/xlink" width="1080" zoomAndPan="magnify" viewBox="0 0 810 809.999993" height="1080" preserveAspectRatio="xMidYMid meet" version="1.0"><path fill="#545454" d="M 405 81 C 226.058594 81 81 226.058594 81 405 C 81 583.941406 226.058594 729 405 729 C 583.941406 729 729 583.941406 729 405 C 729 226.058594 583.941406 81 405 81 Z M 207.523438 250.023438 L 602.058594 250.023438 C 602.503906 250.023438 602.914062 250.144531 603.285156 250.394531 C 603.65625 250.644531 603.925781 250.976562 604.09375 251.390625 C 604.257812 251.804688 604.296875 252.230469 604.199219 252.667969 C 604.105469 253.105469 603.894531 253.480469 603.570312 253.785156 L 470.941406 379.65625 L 470.726562 379.871094 L 431.121094 417.457031 C 430.175781 418.355469 429.191406 419.210938 428.167969 420.015625 C 427.140625 420.820312 426.082031 421.574219 424.984375 422.277344 C 423.886719 422.980469 422.757812 423.632812 421.597656 424.226562 C 420.4375 424.820312 419.25 425.359375 418.039062 425.839844 C 416.828125 426.324219 415.59375 426.746094 414.34375 427.109375 C 413.089844 427.472656 411.824219 427.773438 410.542969 428.015625 C 409.261719 428.257812 407.972656 428.4375 406.671875 428.554688 C 405.375 428.671875 404.074219 428.730469 402.769531 428.722656 C 401.464844 428.714844 400.164062 428.644531 398.867188 428.515625 C 397.570312 428.382812 396.28125 428.1875 395.003906 427.933594 C 393.726562 427.679688 392.460938 427.363281 391.214844 426.984375 C 389.964844 426.609375 388.738281 426.171875 387.53125 425.679688 C 386.324219 425.183594 385.144531 424.632812 383.992188 424.027344 C 382.835938 423.417969 381.714844 422.757812 380.625 422.042969 C 379.535156 421.328125 378.480469 420.5625 377.464844 419.746094 C 376.449219 418.929688 375.472656 418.066406 374.539062 417.15625 L 337.871094 381.605469 C 337.808594 381.546875 337.75 381.488281 337.683594 381.429688 L 205.996094 253.769531 C 205.679688 253.460938 205.472656 253.085938 205.382812 252.652344 C 205.292969 252.214844 205.328125 251.792969 205.496094 251.382812 C 205.664062 250.96875 205.933594 250.640625 206.304688 250.394531 C 206.671875 250.144531 207.082031 250.023438 207.523438 250.023438 Z M 188.929688 538.207031 L 188.929688 267.441406 C 188.929688 267.003906 189.046875 266.601562 189.289062 266.234375 C 189.53125 265.871094 189.855469 265.601562 190.257812 265.433594 C 190.660156 265.261719 191.078125 265.214844 191.507812 265.296875 C 191.9375 265.375 192.308594 265.570312 192.625 265.875 L 317.765625 387.207031 C 317.960938 387.398438 318.117188 387.621094 318.230469 387.871094 C 318.34375 388.121094 318.410156 388.382812 318.421875 388.660156 C 318.4375 388.933594 318.402344 389.203125 318.3125 389.460938 C 318.226562 389.722656 318.09375 389.960938 317.917969 390.171875 L 192.78125 539.613281 C 192.484375 539.964844 192.117188 540.199219 191.671875 540.320312 C 191.230469 540.4375 190.792969 540.417969 190.359375 540.261719 C 189.929688 540.105469 189.582031 539.835938 189.320312 539.460938 C 189.058594 539.082031 188.925781 538.664062 188.929688 538.207031 Z M 606.121094 559.976562 L 203.878906 559.976562 C 203.453125 559.976562 203.0625 559.863281 202.707031 559.632812 C 202.351562 559.40625 202.082031 559.101562 201.902344 558.71875 C 201.722656 558.332031 201.664062 557.929688 201.71875 557.511719 C 201.773438 557.09375 201.9375 556.71875 202.207031 556.394531 L 330.675781 402.984375 C 330.871094 402.75 331.101562 402.566406 331.375 402.433594 C 331.644531 402.296875 331.933594 402.222656 332.234375 402.207031 C 332.535156 402.191406 332.828125 402.238281 333.113281 402.34375 C 333.398438 402.449219 333.648438 402.609375 333.863281 402.820312 L 361.980469 430.078125 C 364.675781 432.703125 367.601562 435.046875 370.75 437.109375 C 373.898438 439.171875 377.214844 440.914062 380.699219 442.335938 C 384.183594 443.757812 387.773438 444.835938 391.464844 445.566406 C 395.15625 446.300781 398.882812 446.671875 402.648438 446.683594 L 402.96875 446.683594 C 406.707031 446.691406 410.410156 446.34375 414.082031 445.640625 C 417.75 444.9375 421.320312 443.894531 424.792969 442.507812 C 428.265625 441.125 431.570312 439.421875 434.71875 437.40625 C 437.863281 435.386719 440.789062 433.089844 443.496094 430.511719 L 474.609375 400.972656 C 474.828125 400.765625 475.078125 400.609375 475.359375 400.507812 C 475.644531 400.402344 475.933594 400.359375 476.234375 400.378906 C 476.535156 400.394531 476.820312 400.46875 477.089844 400.605469 C 477.359375 400.742188 477.589844 400.921875 477.78125 401.152344 L 607.785156 556.394531 C 608.054688 556.71875 608.21875 557.089844 608.273438 557.507812 C 608.328125 557.929688 608.269531 558.328125 608.089844 558.714844 C 607.914062 559.097656 607.644531 559.402344 607.289062 559.628906 C 606.933594 559.859375 606.542969 559.972656 606.121094 559.976562 Z M 621.070312 538.207031 C 621.070312 538.664062 620.941406 539.082031 620.675781 539.457031 C 620.414062 539.832031 620.066406 540.097656 619.636719 540.253906 C 619.203125 540.410156 618.769531 540.429688 618.324219 540.3125 C 617.882812 540.191406 617.511719 539.957031 617.21875 539.605469 L 490.703125 388.523438 C 490.527344 388.3125 490.394531 388.074219 490.308594 387.808594 C 490.21875 387.546875 490.183594 387.277344 490.199219 387 C 490.214844 386.722656 490.28125 386.457031 490.398438 386.207031 C 490.515625 385.953125 490.675781 385.734375 490.875 385.542969 L 617.398438 265.472656 C 617.714844 265.175781 618.085938 264.988281 618.515625 264.914062 C 618.941406 264.835938 619.355469 264.886719 619.753906 265.058594 C 620.152344 265.230469 620.472656 265.496094 620.710938 265.859375 C 620.949219 266.222656 621.070312 266.617188 621.070312 267.054688 Z M 621.070312 538.207031 " fill-opacity="1" fill-rule="nonzero"/></svg>