<svg xmlns="http://www.w3.org/2000/svg" xmlns:xlink="http://www.w3.org/1999/xlink" width="500" zoomAndPan="magnify" viewBox="0 0 375 374.999991" height="500" preserveAspectRatio="xMidYMid meet" version="1.0"><defs><clipPath id="1aeb2c454c"><path d="M 51.210938 58.546875 L 309.210938 58.546875 L 309.210938 316.546875 L 51.210938 316.546875 Z M 51.210938 58.546875 " clip-rule="nonzero"/></clipPath></defs><g clip-path="url(#1aeb2c454c)"><path fill="#ed1c24" d="M 309.210938 187.546875 C 309.210938 189.65625 309.160156 191.765625 309.058594 193.875 C 308.953125 195.984375 308.796875 198.089844 308.589844 200.191406 C 308.382812 202.289062 308.125 204.386719 307.816406 206.472656 C 307.507812 208.5625 307.144531 210.640625 306.734375 212.710938 C 306.320312 214.78125 305.859375 216.839844 305.347656 218.890625 C 304.832031 220.9375 304.269531 222.972656 303.65625 224.992188 C 303.042969 227.011719 302.382812 229.015625 301.671875 231.003906 C 300.960938 232.992188 300.199219 234.960938 299.394531 236.910156 C 298.585938 238.863281 297.730469 240.792969 296.828125 242.699219 C 295.925781 244.609375 294.976562 246.492188 293.980469 248.355469 C 292.984375 250.21875 291.945312 252.054688 290.859375 253.863281 C 289.773438 255.675781 288.644531 257.457031 287.472656 259.214844 C 286.300781 260.96875 285.082031 262.695312 283.824219 264.390625 C 282.566406 266.085938 281.269531 267.75 279.929688 269.382812 C 278.589844 271.015625 277.210938 272.613281 275.792969 274.175781 C 274.378906 275.742188 272.921875 277.269531 271.429688 278.761719 C 269.9375 280.253906 268.40625 281.710938 266.84375 283.128906 C 265.277344 284.546875 263.679688 285.925781 262.050781 287.261719 C 260.417969 288.601562 258.753906 289.902344 257.058594 291.160156 C 255.363281 292.417969 253.636719 293.632812 251.878906 294.804688 C 250.125 295.976562 248.34375 297.105469 246.53125 298.191406 C 244.71875 299.277344 242.882812 300.316406 241.023438 301.3125 C 239.160156 302.308594 237.273438 303.257812 235.367188 304.160156 C 233.457031 305.0625 231.527344 305.917969 229.578125 306.726562 C 227.628906 307.535156 225.660156 308.292969 223.671875 309.003906 C 221.683594 309.714844 219.679688 310.378906 217.660156 310.992188 C 215.636719 311.601562 213.605469 312.167969 211.554688 312.679688 C 209.507812 313.191406 207.449219 313.65625 205.378906 314.066406 C 203.308594 314.476562 201.230469 314.839844 199.140625 315.148438 C 197.050781 315.457031 194.957031 315.71875 192.855469 315.925781 C 190.753906 316.132812 188.652344 316.285156 186.542969 316.390625 C 184.433594 316.492188 182.324219 316.546875 180.210938 316.546875 C 178.101562 316.546875 175.992188 316.492188 173.882812 316.390625 C 171.773438 316.285156 169.667969 316.132812 167.566406 315.925781 C 165.46875 315.71875 163.371094 315.457031 161.285156 315.148438 C 159.195312 314.839844 157.117188 314.476562 155.046875 314.066406 C 152.976562 313.65625 150.914062 313.191406 148.867188 312.679688 C 146.820312 312.167969 144.785156 311.601562 142.765625 310.992188 C 140.746094 310.378906 138.742188 309.714844 136.753906 309.003906 C 134.765625 308.292969 132.796875 307.535156 130.847656 306.726562 C 128.894531 305.917969 126.964844 305.0625 125.058594 304.160156 C 123.148438 303.257812 121.265625 302.308594 119.402344 301.3125 C 117.539062 300.316406 115.703125 299.277344 113.894531 298.191406 C 112.082031 297.105469 110.300781 295.976562 108.542969 294.804688 C 106.789062 293.632812 105.0625 292.417969 103.367188 291.160156 C 101.671875 289.902344 100.007812 288.601562 98.375 287.261719 C 96.742188 285.925781 95.144531 284.546875 93.582031 283.128906 C 92.015625 281.710938 90.488281 280.253906 88.996094 278.761719 C 87.503906 277.269531 86.046875 275.742188 84.628906 274.175781 C 83.210938 272.613281 81.832031 271.015625 80.492188 269.382812 C 79.15625 267.75 77.855469 266.085938 76.597656 264.390625 C 75.339844 262.695312 74.125 260.96875 72.953125 259.214844 C 71.78125 257.457031 70.652344 255.675781 69.566406 253.863281 C 68.480469 252.054688 67.441406 250.21875 66.445312 248.355469 C 65.449219 246.492188 64.5 244.609375 63.597656 242.699219 C 62.695312 240.792969 61.839844 238.863281 61.03125 236.910156 C 60.222656 234.960938 59.464844 232.992188 58.753906 231.003906 C 58.042969 229.015625 57.378906 227.011719 56.765625 224.992188 C 56.152344 222.972656 55.589844 220.9375 55.078125 218.890625 C 54.566406 216.839844 54.101562 214.78125 53.691406 212.710938 C 53.277344 210.640625 52.917969 208.5625 52.609375 206.472656 C 52.296875 204.386719 52.039062 202.289062 51.832031 200.191406 C 51.625 198.089844 51.472656 195.984375 51.367188 193.875 C 51.265625 191.765625 51.210938 189.65625 51.210938 187.546875 C 51.210938 185.433594 51.265625 183.324219 51.367188 181.214844 C 51.472656 179.105469 51.625 177.003906 51.832031 174.902344 C 52.039062 172.800781 52.296875 170.707031 52.609375 168.617188 C 52.917969 166.527344 53.277344 164.449219 53.691406 162.378906 C 54.101562 160.308594 54.566406 158.25 55.078125 156.199219 C 55.589844 154.152344 56.152344 152.117188 56.765625 150.097656 C 57.378906 148.078125 58.042969 146.074219 58.753906 144.085938 C 59.464844 142.097656 60.222656 140.128906 61.03125 138.179688 C 61.839844 136.230469 62.695312 134.300781 63.597656 132.390625 C 64.5 130.480469 65.449219 128.597656 66.445312 126.734375 C 67.441406 124.875 68.480469 123.035156 69.566406 121.226562 C 70.652344 119.414062 71.78125 117.632812 72.953125 115.875 C 74.125 114.121094 75.339844 112.394531 76.597656 110.699219 C 77.855469 109.003906 79.15625 107.339844 80.492188 105.707031 C 81.832031 104.078125 83.210938 102.476562 84.628906 100.914062 C 86.046875 99.351562 87.503906 97.820312 88.996094 96.328125 C 90.488281 94.835938 92.015625 93.378906 93.582031 91.960938 C 95.144531 90.542969 96.742188 89.167969 98.375 87.828125 C 100.007812 86.488281 101.671875 85.1875 103.367188 83.929688 C 105.0625 82.675781 106.789062 81.457031 108.542969 80.285156 C 110.300781 79.113281 112.082031 77.984375 113.894531 76.898438 C 115.703125 75.8125 117.539062 74.773438 119.402344 73.777344 C 121.265625 72.78125 123.148438 71.832031 125.058594 70.929688 C 126.964844 70.027344 128.894531 69.171875 130.847656 68.363281 C 132.796875 67.558594 134.765625 66.796875 136.753906 66.085938 C 138.742188 65.375 140.746094 64.710938 142.765625 64.101562 C 144.785156 63.488281 146.820312 62.925781 148.867188 62.410156 C 150.914062 61.898438 152.976562 61.4375 155.046875 61.023438 C 157.117188 60.613281 159.195312 60.25 161.285156 59.941406 C 163.371094 59.632812 165.46875 59.375 167.566406 59.167969 C 169.667969 58.960938 171.773438 58.804688 173.882812 58.699219 C 175.992188 58.597656 178.101562 58.546875 180.210938 58.546875 C 182.324219 58.546875 184.433594 58.597656 186.542969 58.699219 C 188.652344 58.804688 190.753906 58.960938 192.855469 59.167969 C 194.957031 59.375 197.050781 59.632812 199.140625 59.941406 C 201.230469 60.25 203.308594 60.613281 205.378906 61.023438 C 207.449219 61.4375 209.507812 61.898438 211.554688 62.410156 C 213.605469 62.925781 215.636719 63.488281 217.660156 64.101562 C 219.679688 64.710938 221.683594 65.375 223.671875 66.085938 C 225.660156 66.796875 227.628906 67.558594 229.578125 68.363281 C 231.527344 69.171875 233.457031 70.027344 235.367188 70.929688 C 237.273438 71.832031 239.160156 72.78125 241.023438 73.777344 C 242.882812 74.773438 244.71875 75.8125 246.53125 76.898438 C 248.34375 77.984375 250.125 79.113281 251.878906 80.285156 C 253.636719 81.457031 255.363281 82.675781 257.058594 83.929688 C 258.753906 85.1875 260.417969 86.488281 262.050781 87.828125 C 263.679688 89.167969 265.277344 90.542969 266.84375 91.960938 C 268.40625 93.378906 269.9375 94.835938 271.429688 96.328125 C 272.921875 97.820312 274.378906 99.351562 275.792969 100.914062 C 277.210938 102.476562 278.589844 104.078125 279.929688 105.707031 C 281.269531 107.339844 282.570312 109.003906 283.824219 110.699219 C 285.082031 112.394531 286.300781 114.121094 287.472656 115.875 C 288.644531 117.632812 289.773438 119.414062 290.859375 121.226562 C 291.945312 123.035156 292.984375 124.875 293.980469 126.734375 C 294.976562 128.597656 295.925781 130.480469 296.828125 132.390625 C 297.730469 134.300781 298.585938 136.230469 299.394531 138.179688 C 300.199219 140.128906 300.960938 142.097656 301.671875 144.085938 C 302.382812 146.074219 303.042969 148.078125 303.65625 150.097656 C 304.269531 152.117188 304.832031 154.152344 305.347656 156.199219 C 305.859375 158.25 306.320312 160.308594 306.734375 162.378906 C 307.144531 164.449219 307.507812 166.527344 307.816406 168.617188 C 308.125 170.707031 308.382812 172.800781 308.589844 174.902344 C 308.796875 177.003906 308.953125 179.105469 309.058594 181.214844 C 309.160156 183.324219 309.210938 185.433594 309.210938 187.546875 Z M 309.210938 187.546875 " fill-opacity="1" fill-rule="nonzero"/></g><path fill="#ffffff" d="M 243.8125 220.867188 C 222.984375 203.148438 216.828125 211.605469 207.566406 221.613281 C 200.605469 228.578125 183.632812 213.90625 168.960938 199.234375 C 154.351562 183.816406 139.679688 166.84375 146.578125 159.878906 C 156.648438 149.871094 165.105469 143.652344 147.386719 122.082031 C 130.414062 100.507812 119.597656 117.480469 109.589844 126.746094 C 99.578125 137.5625 109.589844 178.40625 148.941406 219.3125 C 189.039062 260.21875 229.140625 270.230469 239.957031 259.414062 C 249.21875 250.210938 265.382812 238.648438 243.8125 220.867188 Z M 243.8125 220.867188 " fill-opacity="1" fill-rule="evenodd"/></svg>