<svg xmlns="http://www.w3.org/2000/svg" xmlns:xlink="http://www.w3.org/1999/xlink" width="500" zoomAndPan="magnify" viewBox="0 0 375 374.999991" height="500" preserveAspectRatio="xMidYMid meet" version="1.0"><defs><clipPath id="a5711d3713"><path d="M 38 47 L 330.75 47 L 330.75 342 L 38 342 Z M 38 47 " clip-rule="nonzero"/></clipPath></defs><path fill="#ffffff" d="M 197.511719 131.3125 C 192.226562 131.3125 187.925781 135.667969 187.925781 140.929688 L 187.925781 202.585938 L 152.859375 230.601562 C 148.738281 233.890625 148.066406 239.980469 151.355469 244.101562 C 154.648438 248.222656 160.738281 248.898438 164.859375 245.605469 L 202.59375 215.464844 L 202.617188 215.4375 C 203.292969 214.867188 203.5 214.636719 202.878906 215.152344 L 202.410156 215.515625 C 205.132812 213.882812 207.128906 210.878906 207.128906 207.351562 L 207.128906 140.929688 C 207.128906 135.640625 202.800781 131.3125 197.511719 131.3125 " fill-opacity="1" fill-rule="nonzero"/><g clip-path="url(#a5711d3713)"><path fill="#ffffff" d="M 310.769531 239.59375 C 307.011719 239.488281 303.277344 241.328125 301.074219 244.363281 C 299.3125 246.796875 298.535156 249.933594 299.003906 252.941406 C 299.441406 255.921875 301.128906 258.695312 303.5625 260.480469 C 303.5625 260.480469 303.5625 260.480469 303.589844 260.480469 C 306.027344 262.269531 309.160156 263.046875 312.167969 262.582031 C 315.148438 262.140625 317.945312 260.429688 319.734375 257.992188 C 321.496094 255.53125 322.300781 252.394531 321.835938 249.414062 C 321.367188 246.410156 319.683594 243.636719 317.222656 241.847656 C 315.355469 240.472656 313.101562 239.671875 310.769531 239.59375 Z M 318.800781 200.40625 C 318.515625 200.40625 318.257812 200.40625 318 200.40625 C 314.605469 200.613281 311.339844 202.402344 309.34375 205.148438 C 307.554688 207.585938 306.777344 210.75 307.242188 213.753906 C 307.710938 216.734375 309.394531 219.507812 311.855469 221.296875 C 314.292969 223.085938 317.453125 223.863281 320.460938 223.394531 C 323.441406 222.929688 326.214844 221.21875 328.003906 218.78125 C 329.792969 216.347656 330.542969 213.183594 330.101562 210.179688 C 329.636719 207.199219 327.925781 204.425781 325.488281 202.636719 C 323.546875 201.238281 321.210938 200.433594 318.828125 200.40625 C 318.828125 200.40625 318.828125 200.40625 318.800781 200.40625 Z M 319.347656 159.925781 C 319.0625 159.925781 318.800781 159.925781 318.515625 159.925781 C 315.148438 160.132812 311.882812 161.921875 309.859375 164.667969 C 308.097656 167.105469 307.320312 170.265625 307.761719 173.273438 C 308.230469 176.253906 309.9375 179.027344 312.375 180.816406 C 314.8125 182.601562 317.972656 183.378906 320.953125 182.914062 C 323.933594 182.449219 326.734375 180.738281 328.496094 178.300781 C 330.285156 175.863281 331.085938 172.730469 330.621094 169.722656 C 330.152344 166.742188 328.46875 163.941406 326.007812 162.15625 C 324.089844 160.753906 321.730469 159.953125 319.347656 159.925781 Z M 308.046875 122.191406 C 304.316406 122.0625 300.582031 123.902344 298.355469 126.910156 C 296.59375 129.371094 295.816406 132.53125 296.28125 135.511719 C 296.746094 138.492188 298.457031 141.292969 300.894531 143.054688 C 303.332031 144.84375 306.492188 145.621094 309.445312 145.152344 C 312.453125 144.6875 315.226562 143.027344 317.015625 140.59375 C 317.015625 140.59375 317.015625 140.566406 317.015625 140.566406 C 318.800781 138.128906 319.578125 134.996094 319.113281 131.988281 C 318.648438 129.007812 316.960938 126.207031 314.5 124.421875 C 312.660156 123.046875 310.378906 122.269531 308.074219 122.191406 C 308.074219 122.191406 308.074219 122.191406 308.046875 122.191406 Z M 186.757812 47.058594 C 163.589844 46.929688 140.445312 52.371094 119.738281 62.792969 C 99.058594 73.210938 80.890625 88.605469 67.207031 107.289062 C 55.828125 122.839844 47.5625 140.617188 43 159.328125 C 38.4375 178.042969 37.609375 197.632812 40.5625 216.65625 C 43.492188 235.707031 50.230469 254.160156 60.234375 270.617188 C 70.238281 287.074219 83.507812 301.507812 99.058594 312.886719 C 113.597656 323.511719 130.078125 331.46875 147.46875 336.183594 C 164.859375 340.875 183.105469 342.351562 201.039062 340.511719 C 218.945312 338.644531 236.492188 333.488281 252.558594 325.324219 C 268.628906 317.160156 283.167969 306.015625 295.21875 292.644531 C 295.816406 291.96875 295.761719 290.933594 295.0625 290.335938 C 295.035156 290.285156 294.984375 290.261719 294.960938 290.234375 L 282.414062 281.035156 C 281.742188 280.566406 280.808594 280.644531 280.265625 281.242188 C 260.699219 302.3125 233.953125 316.773438 205.546875 321.152344 C 172.324219 326.285156 137.152344 317.679688 110.046875 297.828125 C 82.9375 277.976562 64.148438 247.03125 58.988281 213.804688 C 53.859375 180.609375 62.410156 145.414062 82.238281 118.304688 C 102.089844 91.167969 133.058594 72.355469 166.257812 67.195312 C 194.816406 62.765625 224.648438 68.804688 249.734375 83.136719 L 249.425781 83.550781 C 249.398438 83.550781 249.398438 83.550781 249.398438 83.550781 L 243.386719 91.664062 C 241.675781 93.996094 241.285156 97.078125 242.402344 99.773438 C 243.515625 102.445312 245.976562 104.359375 248.855469 104.75 L 289.90625 110.53125 C 289.90625 110.53125 289.90625 110.53125 289.929688 110.53125 C 291.875 110.789062 293.871094 110.347656 295.53125 109.285156 L 295.53125 109.257812 C 296.359375 108.714844 297.085938 108.042969 297.679688 107.289062 C 298.25 106.488281 298.664062 105.578125 298.949219 104.644531 C 299.441406 102.9375 299.289062 101.148438 298.664062 99.488281 C 298.664062 99.308594 298.613281 99.101562 298.535156 98.945312 C 298.535156 98.917969 298.535156 98.917969 298.535156 98.917969 L 281.199219 61.289062 C 279.953125 58.644531 277.441406 56.832031 274.5625 56.546875 C 271.660156 56.234375 268.785156 57.453125 267.074219 59.785156 L 261.085938 67.820312 C 238.71875 54.523438 212.777344 47.214844 186.757812 47.058594 " fill-opacity="1" fill-rule="nonzero"/></g></svg>