<svg xmlns="http://www.w3.org/2000/svg" xmlns:xlink="http://www.w3.org/1999/xlink" width="500" zoomAndPan="magnify" viewBox="0 0 375 374.999991" height="500" preserveAspectRatio="xMidYMid meet" version="1.0"><defs><clipPath id="68da0acc6e"><path d="M 73 6 L 299 6 L 299 337.210938 L 73 337.210938 Z M 73 6 " clip-rule="nonzero"/></clipPath></defs><path fill="#ffffff" d="M 191.929688 189.640625 L 191.929688 196.386719 C 202.097656 199.042969 209.675781 208.214844 209.675781 219.210938 C 209.675781 222.46875 207.015625 225.125 203.761719 225.125 C 200.503906 225.125 197.84375 222.46875 197.84375 219.210938 C 197.84375 212.695312 192.53125 207.382812 186.015625 207.382812 C 179.503906 207.382812 174.1875 212.695312 174.1875 219.210938 C 174.1875 225.726562 179.503906 231.039062 186.015625 231.039062 C 199.070312 231.039062 209.675781 241.640625 209.675781 254.695312 C 209.675781 265.691406 202.097656 274.863281 191.929688 277.519531 L 191.929688 284.265625 C 191.929688 287.523438 189.273438 290.179688 186.015625 290.179688 C 182.761719 290.179688 180.101562 287.523438 180.101562 284.265625 L 180.101562 277.519531 C 169.9375 274.863281 162.359375 265.691406 162.359375 254.695312 C 162.359375 251.4375 165.019531 248.78125 168.273438 248.78125 C 171.53125 248.78125 174.1875 251.4375 174.1875 254.695312 C 174.1875 261.210938 179.503906 266.523438 186.015625 266.523438 C 192.53125 266.523438 197.84375 261.210938 197.84375 254.695312 C 197.84375 248.179688 192.53125 242.867188 186.015625 242.867188 C 172.964844 242.867188 162.359375 232.261719 162.359375 219.210938 C 162.359375 208.214844 169.9375 199.042969 180.101562 196.386719 L 180.101562 189.640625 C 180.101562 186.382812 182.761719 183.726562 186.015625 183.726562 C 189.273438 183.726562 191.929688 186.382812 191.929688 189.640625 Z M 115.046875 236.953125 C 115.046875 276.085938 146.882812 307.921875 186.015625 307.921875 C 225.152344 307.921875 256.988281 276.085938 256.988281 236.953125 C 256.988281 197.816406 225.152344 165.984375 186.015625 165.984375 C 146.882812 165.984375 115.046875 197.816406 115.046875 236.953125 " fill-opacity="1" fill-rule="nonzero"/><g clip-path="url(#68da0acc6e)"><path fill="#ffffff" d="M 268.816406 236.953125 C 268.816406 282.601562 231.667969 319.75 186.015625 319.75 C 140.367188 319.75 103.21875 282.601562 103.21875 236.953125 C 103.21875 191.304688 140.367188 154.15625 186.015625 154.15625 C 231.667969 154.15625 268.816406 191.304688 268.816406 236.953125 Z M 209.949219 53.546875 C 209.949219 36.773438 205.976562 20.347656 201.355469 8.40625 C 200.269531 5.632812 196.320312 5.816406 195.511719 8.683594 C 190.382812 27.070312 181.441406 57.265625 160.929688 81.128906 C 137.109375 108.875 132.859375 133.546875 132.445312 145.792969 C 132.304688 149.925781 129.949219 153.738281 126.277344 155.773438 C 122.625 157.734375 118.328125 157.691406 114.816406 155.585938 C 109.804688 152.605469 105.714844 148.472656 102.734375 143.414062 C 101.558594 141.425781 98.667969 141.402344 97.492188 143.390625 C 87.003906 161.109375 73.648438 191.441406 73.648438 231.015625 C 73.648438 259.085938 84.390625 285.234375 103.890625 304.6875 C 125.097656 325.847656 154.34375 337.492188 186.226562 337.492188 C 186.339844 337.492188 186.480469 337.492188 186.570312 337.492188 C 218.359375 337.398438 247.5625 324.230469 268.859375 300.414062 C 290.808594 275.832031 301.320312 242.683594 297.667969 209.484375 C 291.871094 156.90625 267.660156 124.007812 251.648438 107.558594 C 249.734375 105.59375 246.382812 106.957031 246.382812 109.707031 C 246.3125 125.183594 243.773438 137.105469 238.757812 145.191406 C 236.519531 148.796875 232.914062 151.035156 228.410156 150.78125 C 224.160156 150.691406 220.394531 148.425781 218.3125 144.730469 C 203.945312 119.109375 206.347656 95.800781 208.449219 75.214844 C 209.210938 67.730469 209.949219 60.636719 209.949219 53.546875 " fill-opacity="1" fill-rule="nonzero"/></g></svg>