<svg xmlns="http://www.w3.org/2000/svg" xmlns:xlink="http://www.w3.org/1999/xlink" width="500" zoomAndPan="magnify" viewBox="0 0 375 374.999991" height="500" preserveAspectRatio="xMidYMid meet" version="1.0"><defs><clipPath id="ad3cd90c8b"><path d="M 213 40 L 334.191406 40 L 334.191406 162 L 213 162 Z M 213 40 " clip-rule="nonzero"/></clipPath></defs><path fill="#ffffff" d="M 215.425781 326.554688 C 203.097656 326.605469 190.710938 324.007812 179.261719 318.539062 C 130.34375 295.070312 88.960938 256.050781 62.921875 208.421875 C 60.636719 204.242188 58.472656 199.988281 56.414062 195.691406 C 41.019531 163.472656 47.761719 124.734375 73.195312 99.292969 C 73.195312 99.292969 89.539062 82.957031 89.550781 82.945312 C 101.769531 70.730469 123.40625 73.832031 131.757812 88.855469 L 146.460938 115.328125 C 152.21875 125.6875 150.386719 138.777344 142.003906 147.160156 L 128.09375 161.070312 C 124.035156 165.125 123.433594 171.65625 126.664062 176.597656 C 145.457031 205.371094 169.578125 229.492188 198.351562 248.285156 C 203.375 251.585938 209.765625 250.976562 213.875 246.855469 L 227.789062 232.949219 C 236.167969 224.554688 249.277344 222.734375 259.625 228.496094 C 259.625 228.496094 286.066406 243.179688 286.09375 243.195312 C 301.375 251.683594 304.351562 273.054688 292.003906 285.402344 C 292.003906 285.402344 275.65625 301.75 275.652344 301.753906 C 259.640625 317.765625 237.625 326.457031 215.425781 326.554688 Z M 108.386719 89.824219 C 105.296875 89.800781 102.1875 90.894531 99.84375 93.238281 L 83.488281 109.585938 C 62.410156 130.671875 56.808594 162.75 69.550781 189.414062 C 91.195312 234.777344 126.898438 272.902344 170.625 297.65625 C 175.488281 300.398438 180.464844 302.976562 185.546875 305.402344 C 212.207031 318.140625 244.285156 312.546875 265.359375 291.460938 C 265.359375 291.460938 281.6875 275.132812 281.710938 275.109375 C 287.101562 269.71875 285.9375 259.757812 279.023438 255.914062 L 252.550781 241.214844 C 247.839844 238.589844 241.894531 239.425781 238.085938 243.242188 L 224.171875 257.148438 C 215.277344 266.039062 201.0625 267.433594 190.386719 260.476562 C 159.921875 240.570312 134.378906 215.027344 114.472656 184.558594 C 107.496094 173.886719 108.894531 159.675781 117.800781 150.773438 L 131.710938 136.867188 C 135.519531 133.054688 136.355469 127.109375 133.734375 122.398438 C 133.734375 122.398438 119.046875 95.957031 119.027344 95.925781 C 116.851562 92.007812 112.632812 89.859375 108.386719 89.824219 Z M 108.386719 89.824219 " fill-opacity="1" fill-rule="nonzero"/><g clip-path="url(#ad3cd90c8b)"><path fill="#ffffff" d="M 327.257812 161.730469 C 323.238281 161.730469 319.976562 158.472656 319.976562 154.453125 C 319.976562 99.597656 275.351562 54.96875 220.496094 54.96875 C 216.476562 54.96875 213.214844 51.710938 213.214844 47.691406 C 213.214844 43.671875 216.476562 40.410156 220.496094 40.410156 C 283.378906 40.410156 334.535156 91.570312 334.535156 154.453125 C 334.535156 158.472656 331.277344 161.730469 327.257812 161.730469 Z M 327.257812 161.730469 " fill-opacity="1" fill-rule="nonzero"/></g><path fill="#ffffff" d="M 283.582031 161.730469 C 279.5625 161.730469 276.304688 158.472656 276.304688 154.453125 C 276.304688 123.683594 251.265625 98.644531 220.496094 98.644531 C 216.476562 98.644531 213.214844 95.386719 213.214844 91.367188 C 213.214844 87.347656 216.476562 84.085938 220.496094 84.085938 C 259.292969 84.085938 290.863281 115.652344 290.863281 154.453125 C 290.863281 158.472656 287.601562 161.730469 283.582031 161.730469 Z M 283.582031 161.730469 " fill-opacity="1" fill-rule="nonzero"/><path fill="#ffffff" d="M 239.90625 161.730469 C 235.886719 161.730469 232.628906 158.472656 232.628906 154.453125 C 232.628906 147.761719 227.1875 142.320312 220.496094 142.320312 C 216.476562 142.320312 213.214844 139.058594 213.214844 135.042969 C 213.214844 131.023438 216.476562 127.761719 220.496094 127.761719 C 235.214844 127.761719 247.1875 139.734375 247.1875 154.453125 C 247.1875 158.472656 243.925781 161.730469 239.90625 161.730469 Z M 239.90625 161.730469 " fill-opacity="1" fill-rule="nonzero"/></svg>